<svg version="1.1" id="Layer_1" xmlns="http://www.w3.org/2000/svg" xmlns:xlink="http://www.w3.org/1999/xlink" x="0px" y="0px"
	 width="100%" viewBox="0 0 204 192" enable-background="new 0 0 204 192" xml:space="preserve">
<path fill="#FCFCFC" opacity="1.000000" stroke="none" 
	d="
M205.000000,99.000000 
	C205.000000,130.236496 205.000000,161.472992 205.000000,193.000000 
	C189.313629,193.000000 173.625473,193.000000 157.482117,192.794571 
	C157.026901,192.589142 157.040741,192.177643 157.431427,192.111526 
	C169.406830,190.169296 176.619690,181.927078 176.713959,170.053345 
	C176.836990,154.558365 176.885239,139.059158 176.605835,123.568260 
	C176.560455,121.051422 175.277588,117.956039 173.514450,116.162445 
	C151.909271,94.183868 130.118454,72.387573 108.347290,50.572460 
	C104.321083,46.538136 101.711510,46.503536 97.744377,50.477440 
	C75.851990,72.407166 53.958473,94.336250 32.208305,116.406441 
	C30.636257,118.001602 29.397526,120.704933 29.365168,122.912987 
	C29.130819,138.905273 29.050283,154.905945 29.317106,170.897369 
	C29.512989,182.637054 37.318642,190.771835 48.966080,192.383377 
	C48.973053,192.589127 49.000000,193.000000 49.000000,193.000000 
	C33.049450,193.000000 17.098898,193.000000 1.000000,193.000000 
	C1.000000,161.979248 1.000000,130.958282 1.319088,99.612823 
	C5.383682,108.447014 14.542826,110.426399 21.603893,103.600174 
	C22.322388,102.905563 23.022097,102.191460 23.727268,101.483154 
	C47.936008,77.166786 72.138916,52.844593 96.357239,28.537769 
	C101.356651,23.520088 104.609993,23.486761 109.446770,28.342499 
	C133.897141,52.888756 158.347992,77.434532 182.782394,101.996689 
	C191.238525,110.497047 199.129639,109.452385 205.000000,99.000000 
z"/>
<path fill="#030303" opacity="1.000000" stroke="none" 
	d="
M205.000000,98.571533 
	C199.129639,109.452385 191.238525,110.497047 182.782394,101.996689 
	C158.347992,77.434532 133.897141,52.888756 109.446770,28.342499 
	C104.609993,23.486761 101.356651,23.520088 96.357239,28.537769 
	C72.138916,52.844593 47.936008,77.166786 23.727268,101.483154 
	C23.022097,102.191460 22.322388,102.905563 21.603893,103.600174 
	C14.542826,110.426399 5.383682,108.447014 1.319088,99.144165 
	C1.000000,97.285645 1.000000,95.571281 1.337013,93.334686 
	C2.927659,90.899017 3.899116,88.705879 5.477087,87.113937 
	C30.782698,61.584381 56.040913,36.004635 81.669571,10.802049 
	C85.384270,7.149110 90.917191,5.308437 95.695534,2.794096 
	C97.326721,1.935771 99.224197,1.583495 101.000000,1.000000 
	C101.750000,1.000000 102.500000,1.000000 103.762840,1.376001 
	C112.568100,2.308611 119.576622,5.517612 125.388451,11.541042 
	C132.346176,18.752077 139.478531,25.794609 147.472229,33.854900 
	C147.472229,28.131508 147.072189,23.792894 147.566330,19.558634 
	C148.300751,13.265422 153.860077,8.789689 159.593155,9.220782 
	C165.809158,9.688189 170.117157,14.216574 170.338379,20.793991 
	C170.500397,25.611252 170.364746,30.437893 170.407227,35.259953 
	C170.470139,42.397755 168.658310,50.329948 171.197937,56.449257 
	C173.737213,62.567730 180.725464,66.797691 185.619080,71.991547 
	C192.152328,78.925644 198.546234,85.991013 205.000000,93.000000 
	C205.000000,94.714355 205.000000,96.428719 205.000000,98.571533 
z"/>
<path fill="#FDFDFD" opacity="1.000000" stroke="none" 
	d="
M100.531342,1.000000 
	C99.224197,1.583495 97.326721,1.935771 95.695534,2.794096 
	C90.917191,5.308437 85.384270,7.149110 81.669571,10.802049 
	C56.040913,36.004635 30.782698,61.584381 5.477087,87.113937 
	C3.899116,88.705879 2.927659,90.899017 1.337013,92.906219 
	C1.000000,62.403358 1.000000,31.806719 1.000000,1.000000 
	C34.020596,1.000000 67.041641,1.000000 100.531342,1.000000 
z"/>
<path fill="#FCFCFC" opacity="1.000000" stroke="none" 
	d="
M205.000000,92.531342 
	C198.546234,85.991013 192.152328,78.925644 185.619080,71.991547 
	C180.725464,66.797691 173.737213,62.567730 171.197937,56.449257 
	C168.658310,50.329948 170.470139,42.397755 170.407227,35.259953 
	C170.364746,30.437893 170.500397,25.611252 170.338379,20.793991 
	C170.117157,14.216574 165.809158,9.688189 159.593155,9.220782 
	C153.860077,8.789689 148.300751,13.265422 147.566330,19.558634 
	C147.072189,23.792894 147.472229,28.131508 147.472229,33.854900 
	C139.478531,25.794609 132.346176,18.752077 125.388451,11.541042 
	C119.576622,5.517612 112.568100,2.308611 104.137840,1.376001 
	C137.590179,1.000000 171.180374,1.000000 205.000000,1.000000 
	C205.000000,31.353842 205.000000,61.708263 205.000000,92.531342 
z"/>
<path fill="#FDFDFD" opacity="1.000000" stroke="none" 
	d="
M122.000000,193.000000 
	C109.645775,193.000000 97.291542,193.000000 84.455185,192.697464 
	C83.940628,192.195648 83.908203,191.996384 83.866539,191.341583 
	C83.857292,173.980469 83.857292,157.074905 83.857292,140.170959 
	C96.925728,140.170959 109.337029,140.170959 122.121918,140.170959 
	C122.121918,157.570282 122.121918,174.682449 122.073837,192.094177 
	C122.017159,192.595840 122.008575,192.797928 122.000000,193.000000 
z"/>
<path fill="#CDCDCD" opacity="1.000000" stroke="none" 
	d="
M83.875786,191.797134 
	C83.908203,191.996384 83.940628,192.195648 83.986526,192.697464 
	C72.645775,193.000000 61.291546,193.000000 49.468658,193.000000 
	C49.000000,193.000000 48.973053,192.589127 49.430527,192.298157 
	C61.217262,191.937180 72.546524,191.867157 83.875786,191.797134 
z"/>
<path fill="#CDCDCD" opacity="1.000000" stroke="none" 
	d="
M122.468658,193.000000 
	C122.008575,192.797928 122.017159,192.595840 122.531982,192.149841 
	C134.372391,191.996506 145.706558,192.087082 157.040741,192.177643 
	C157.040741,192.177643 157.026901,192.589142 157.013458,192.794571 
	C145.645767,193.000000 134.291550,193.000000 122.468658,193.000000 
z"/>
<path fill="#020202" opacity="1.000000" stroke="none" 
	d="
M157.431427,192.111526 
	C145.706558,192.087082 134.372391,191.996506 122.580063,191.850281 
	C122.121918,174.682449 122.121918,157.570282 122.121918,140.170959 
	C109.337029,140.170959 96.925728,140.170959 83.857292,140.170959 
	C83.857292,157.074905 83.857292,173.980469 83.866539,191.341583 
	C72.546524,191.867157 61.217262,191.937180 49.423553,192.092407 
	C37.318642,190.771835 29.512989,182.637054 29.317106,170.897369 
	C29.050283,154.905945 29.130819,138.905273 29.365168,122.912987 
	C29.397526,120.704933 30.636257,118.001602 32.208305,116.406441 
	C53.958473,94.336250 75.851990,72.407166 97.744377,50.477440 
	C101.711510,46.503536 104.321083,46.538136 108.347290,50.572460 
	C130.118454,72.387573 151.909271,94.183868 173.514450,116.162445 
	C175.277588,117.956039 176.560455,121.051422 176.605835,123.568260 
	C176.885239,139.059158 176.836990,154.558365 176.713959,170.053345 
	C176.619690,181.927078 169.406830,190.169296 157.431427,192.111526 
z"/>
</svg>