<?xml version="1.0" standalone="no"?>
<!DOCTYPE svg PUBLIC "-//W3C//DTD SVG 20010904//EN"
 "http://www.w3.org/TR/2001/REC-SVG-20010904/DTD/svg10.dtd">
<svg version="1.0" xmlns="http://www.w3.org/2000/svg"
 width="165.000000pt" height="148.000000pt" viewBox="0 0 165.000000 148.000000"
 preserveAspectRatio="xMidYMid meet">
<metadata>
Created by potrace 1.10, written by Peter Selinger 2001-2011
</metadata>
<g transform="translate(0.000000,148.000000) scale(0.100000,-0.100000)"
fill="#000000" stroke="none">
<path d="M428 1455 c-239 -122 -418 -405 -418 -659 0 -46 1 -48 15 -30 13 18
14 16 15 -25 0 -37 -2 -42 -15 -31 -13 11 -15 6 -15 -31 0 -249 184 -537 419
-655 58 -28 61 -29 61 -8 0 12 7 15 27 11 19 -3 33 2 50 19 l24 24 43 -35 43
-35 148 0 148 0 43 35 43 35 24 -24 c21 -21 30 -24 55 -17 26 8 29 7 25 -10
-7 -25 -2 -24 60 7 237 120 420 410 416 659 0 28 -3 44 -6 38 -9 -24 -23 -13
-23 18 0 27 2 30 15 19 13 -11 15 -6 15 36 0 254 -182 541 -419 660 -57 28
-73 30 -64 8 5 -14 1 -16 -22 -12 -21 4 -34 0 -52 -18 l-24 -24 -43 35 -43 35
-148 0 -148 0 -43 -35 -43 -35 -24 24 c-21 21 -30 24 -56 16 -29 -8 -30 -7
-21 11 15 26 -3 25 -62 -6z m362 -187 l0 -203 -170 0 c-147 0 -169 2 -164 15
3 8 15 40 26 70 31 81 74 153 126 212 54 59 125 108 159 108 l23 0 0 -202z
m161 174 c86 -55 170 -168 218 -296 11 -28 22 -58 25 -66 5 -13 -17 -15 -164
-15 l-170 0 0 203 0 202 23 0 c13 0 43 -13 68 -28z m-432 -64 c-45 -57 -102
-170 -129 -257 l-17 -54 -107 -1 c-58 0 -106 2 -106 5 0 19 92 143 146 196 58
57 212 161 242 162 7 1 -6 -23 -29 -51z m679 -1 c90 -51 195 -150 251 -236 22
-35 41 -67 41 -70 0 -3 -48 -5 -106 -4 l-107 1 -19 59 c-33 97 -83 195 -128
252 -49 62 -43 61 68 -2z m-1048 -337 c0 -6 -44 -30 -55 -30 -6 0 6 33 18 48
7 9 13 9 23 1 8 -6 14 -15 14 -19z m278 -27 c-12 -13 -28 -23 -35 -23 -25 0
-26 30 -3 55 22 24 25 24 42 8 18 -16 18 -17 -4 -40z m852 0 c0 -25 -30 -26
-55 -3 -24 22 -24 25 -8 42 16 18 17 18 40 -4 13 -12 23 -28 23 -35z m272 12
c5 -23 4 -23 -21 -7 -14 9 -28 17 -30 19 -2 1 2 9 9 18 16 19 36 5 42 -30z
m-698 13 c8 -14 7 -21 -6 -34 -30 -30 -75 9 -48 42 16 18 39 15 54 -8z m-498
-63 c-3 -9 -11 -65 -18 -125 -9 -87 -9 -133 0 -220 7 -60 15 -116 18 -125 5
-13 -10 -15 -113 -15 l-120 0 -19 68 c-13 48 -19 100 -19 182 0 82 6 134 19
183 l19 67 120 0 c103 0 118 -2 113 -15z m434 -235 l0 -250 -179 0 -180 0 -8
58 c-4 31 -8 118 -8 192 0 74 4 161 8 193 l8 57 180 0 179 0 0 -250z m437 193
c10 -75 10 -311 0 -385 l-8 -58 -180 0 -179 0 0 250 0 250 179 0 180 0 8 -57z
m319 -10 c13 -49 19 -101 19 -183 0 -82 -6 -134 -19 -182 l-19 -68 -120 0
c-103 0 -118 2 -113 15 3 9 11 65 18 125 9 87 9 133 0 220 -7 60 -15 116 -18
125 -5 13 10 15 113 15 l120 0 19 -67z m-1122 -454 c21 -17 24 -24 15 -35 -16
-19 -33 -18 -54 6 -17 19 -15 50 3 50 5 0 21 -9 36 -21z m436 -13 c0 -20 -27
-39 -45 -32 -25 9 -30 37 -10 52 20 15 55 2 55 -20z m417 18 c3 -8 -4 -25 -17
-39 -22 -24 -24 -24 -43 -8 -18 17 -18 18 8 40 31 27 43 29 52 7z m-1152 -16
c28 -13 31 -21 11 -37 -14 -12 -27 -2 -39 32 -8 20 -6 21 28 5z m1414 -34 c-9
-11 -15 -12 -25 -3 -19 16 -17 24 9 36 26 12 37 -8 16 -33z m-1149 -65 c27
-87 84 -200 129 -256 23 -29 37 -53 32 -53 -27 0 -190 109 -245 163 -54 53
-146 177 -146 196 0 3 48 5 106 5 l107 -1 17 -54z m400 -146 l0 -203 -23 0
c-34 0 -105 49 -159 108 -52 59 -95 131 -126 212 -11 30 -23 62 -26 70 -5 13
17 15 164 15 l170 0 0 -202z m404 187 c-3 -8 -15 -40 -26 -70 -23 -61 -88
-171 -130 -219 -38 -44 -125 -101 -154 -101 l-24 0 0 203 0 202 170 0 c147 0
169 -2 164 -15z m296 9 c0 -3 -19 -35 -41 -70 -56 -86 -161 -185 -251 -236
-111 -63 -117 -64 -69 -3 55 70 109 181 144 300 4 12 25 15 111 15 58 0 106
-3 106 -6z"/>
</g>
</svg>
